# Blender 4.0.2
# www.blender.org
mtllib cube.mtl
o Cube
v 1.000000 1.000000 -1.000000
v 1.000000 -1.000000 -1.000000
v 1.000000 1.000000 1.000000
v 1.000000 -1.000000 1.000000
v -1.000000 1.000000 -1.000000
v -1.000000 -1.000000 -1.000000
v -1.000000 1.000000 1.000000
v -1.000000 -1.000000 1.000000
vn -0.0000 1.0000 -0.0000
vn -0.0000 -0.0000 1.0000
vn -1.0000 -0.0000 -0.0000
vn -0.0000 -1.0000 -0.0000
vn 1.0000 -0.0000 -0.0000
vn -0.0000 -0.0000 -1.0000
vt 0.000000 0.333333
vt 0.333333 0.000000
vt 0.333333 0.333333
vt 0.333333 0.666667
vt 0.000000 0.666667
vt 0.666667 -0.000000
vt 0.666667 0.333333
vt 0.666667 0.666667
vt 0.333333 0.333333
vt 0.333333 1.000000
vt 0.000000 1.000000
vt 0.666667 1.000000
vt 0.000000 0.000000
vt 0.333333 0.000000
s 0
usemtl mat1
f 5/1/1 3/2/1 1/3/1
f 3/1/2 8/4/2 4/5/2
f 7/3/3 6/6/3 8/7/3
f 2/8/4 8/9/4 6/7/4
f 1/5/5 4/10/5 2/11/5
f 5/4/6 2/12/6 6/10/6
f 5/1/1 7/13/1 3/2/1
f 3/1/2 7/3/2 8/4/2
f 7/3/3 5/14/3 6/6/3
f 2/8/4 4/4/4 8/9/4
f 1/5/5 3/4/5 4/10/5
f 5/4/6 1/8/6 2/12/6
